<mxfile host="app.diagrams.net" modified="2023-07-07T06:32:24.003Z" agent="Mozilla/5.0 (Windows NT 6.1; Win64; x64; rv:109.0) Gecko/20100101 Firefox/115.0" etag="TJJ1er1YfjEmjsGtGiZk" version="21.6.1" type="device">
  <diagram name="Page-1" id="Y80vMJWp9gPtldVaTrsz">
    <mxGraphModel dx="1730" dy="1570" grid="1" gridSize="10" guides="1" tooltips="1" connect="1" arrows="1" fold="1" page="1" pageScale="1" pageWidth="850" pageHeight="1100" math="0" shadow="0">
      <root>
        <mxCell id="0" />
        <mxCell id="1" parent="0" />
        <mxCell id="k8peXyb4xf0YadzC96Ip-9" style="edgeStyle=orthogonalEdgeStyle;rounded=0;orthogonalLoop=1;jettySize=auto;html=1;" parent="1" source="k8peXyb4xf0YadzC96Ip-1" target="k8peXyb4xf0YadzC96Ip-5" edge="1">
          <mxGeometry relative="1" as="geometry">
            <Array as="points">
              <mxPoint x="425" y="90" />
              <mxPoint x="505" y="90" />
            </Array>
          </mxGeometry>
        </mxCell>
        <mxCell id="k8peXyb4xf0YadzC96Ip-12" style="edgeStyle=orthogonalEdgeStyle;rounded=0;orthogonalLoop=1;jettySize=auto;html=1;" parent="1" edge="1">
          <mxGeometry relative="1" as="geometry">
            <mxPoint x="300" y="450" as="targetPoint" />
            <mxPoint x="425" y="-10" as="sourcePoint" />
            <Array as="points">
              <mxPoint x="425" y="90" />
              <mxPoint x="305" y="90" />
            </Array>
          </mxGeometry>
        </mxCell>
        <mxCell id="k8peXyb4xf0YadzC96Ip-14" style="edgeStyle=orthogonalEdgeStyle;rounded=0;orthogonalLoop=1;jettySize=auto;html=1;" parent="1" source="k8peXyb4xf0YadzC96Ip-1" edge="1">
          <mxGeometry relative="1" as="geometry">
            <mxPoint x="40" y="110" as="targetPoint" />
            <Array as="points">
              <mxPoint x="425" y="90" />
              <mxPoint x="41" y="90" />
            </Array>
          </mxGeometry>
        </mxCell>
        <mxCell id="k8peXyb4xf0YadzC96Ip-15" style="edgeStyle=orthogonalEdgeStyle;rounded=0;orthogonalLoop=1;jettySize=auto;html=1;entryX=0.5;entryY=0;entryDx=0;entryDy=0;" parent="1" source="k8peXyb4xf0YadzC96Ip-1" target="k8peXyb4xf0YadzC96Ip-3" edge="1">
          <mxGeometry relative="1" as="geometry">
            <Array as="points">
              <mxPoint x="425" y="90" />
              <mxPoint x="790" y="90" />
            </Array>
          </mxGeometry>
        </mxCell>
        <mxCell id="nylarFtcNKe-b3C_SZ7v-4" style="edgeStyle=orthogonalEdgeStyle;rounded=0;orthogonalLoop=1;jettySize=auto;html=1;entryX=0.5;entryY=0;entryDx=0;entryDy=0;" edge="1" parent="1" source="k8peXyb4xf0YadzC96Ip-1" target="nylarFtcNKe-b3C_SZ7v-3">
          <mxGeometry relative="1" as="geometry">
            <Array as="points">
              <mxPoint x="425" y="90" />
              <mxPoint x="1160" y="90" />
            </Array>
          </mxGeometry>
        </mxCell>
        <mxCell id="k8peXyb4xf0YadzC96Ip-1" value="App" style="ellipse;whiteSpace=wrap;html=1;aspect=fixed;" parent="1" vertex="1">
          <mxGeometry x="385" y="-60" width="80" height="80" as="geometry" />
        </mxCell>
        <mxCell id="k8peXyb4xf0YadzC96Ip-19" style="edgeStyle=orthogonalEdgeStyle;rounded=0;orthogonalLoop=1;jettySize=auto;html=1;entryX=0.5;entryY=0;entryDx=0;entryDy=0;" parent="1" source="k8peXyb4xf0YadzC96Ip-2" target="k8peXyb4xf0YadzC96Ip-17" edge="1">
          <mxGeometry relative="1" as="geometry" />
        </mxCell>
        <mxCell id="k8peXyb4xf0YadzC96Ip-20" style="edgeStyle=orthogonalEdgeStyle;rounded=0;orthogonalLoop=1;jettySize=auto;html=1;entryX=0.5;entryY=0;entryDx=0;entryDy=0;" parent="1" source="k8peXyb4xf0YadzC96Ip-2" target="k8peXyb4xf0YadzC96Ip-16" edge="1">
          <mxGeometry relative="1" as="geometry">
            <Array as="points">
              <mxPoint x="40" y="210" />
              <mxPoint x="-100" y="210" />
            </Array>
          </mxGeometry>
        </mxCell>
        <mxCell id="k8peXyb4xf0YadzC96Ip-21" style="edgeStyle=orthogonalEdgeStyle;rounded=0;orthogonalLoop=1;jettySize=auto;html=1;entryX=0.5;entryY=0;entryDx=0;entryDy=0;" parent="1" source="k8peXyb4xf0YadzC96Ip-2" target="k8peXyb4xf0YadzC96Ip-18" edge="1">
          <mxGeometry relative="1" as="geometry">
            <Array as="points">
              <mxPoint x="40" y="210" />
              <mxPoint x="170" y="210" />
            </Array>
          </mxGeometry>
        </mxCell>
        <mxCell id="nylarFtcNKe-b3C_SZ7v-2" style="edgeStyle=orthogonalEdgeStyle;rounded=0;orthogonalLoop=1;jettySize=auto;html=1;entryX=1.025;entryY=0.288;entryDx=0;entryDy=0;entryPerimeter=0;" edge="1" parent="1" source="k8peXyb4xf0YadzC96Ip-2" target="k8peXyb4xf0YadzC96Ip-34">
          <mxGeometry relative="1" as="geometry" />
        </mxCell>
        <mxCell id="k8peXyb4xf0YadzC96Ip-2" value="about page" style="ellipse;whiteSpace=wrap;html=1;aspect=fixed;" parent="1" vertex="1">
          <mxGeometry y="120" width="80" height="80" as="geometry" />
        </mxCell>
        <mxCell id="k8peXyb4xf0YadzC96Ip-25" style="edgeStyle=orthogonalEdgeStyle;rounded=0;orthogonalLoop=1;jettySize=auto;html=1;entryX=0.5;entryY=0;entryDx=0;entryDy=0;" parent="1" source="k8peXyb4xf0YadzC96Ip-3" target="k8peXyb4xf0YadzC96Ip-22" edge="1">
          <mxGeometry relative="1" as="geometry" />
        </mxCell>
        <mxCell id="k8peXyb4xf0YadzC96Ip-26" style="edgeStyle=orthogonalEdgeStyle;rounded=0;orthogonalLoop=1;jettySize=auto;html=1;entryX=0.5;entryY=0;entryDx=0;entryDy=0;" parent="1" source="k8peXyb4xf0YadzC96Ip-3" target="k8peXyb4xf0YadzC96Ip-23" edge="1">
          <mxGeometry relative="1" as="geometry" />
        </mxCell>
        <mxCell id="k8peXyb4xf0YadzC96Ip-27" style="edgeStyle=orthogonalEdgeStyle;rounded=0;orthogonalLoop=1;jettySize=auto;html=1;entryX=0.613;entryY=-0.037;entryDx=0;entryDy=0;entryPerimeter=0;" parent="1" source="k8peXyb4xf0YadzC96Ip-3" target="k8peXyb4xf0YadzC96Ip-24" edge="1">
          <mxGeometry relative="1" as="geometry">
            <Array as="points">
              <mxPoint x="790" y="220" />
              <mxPoint x="1009" y="220" />
            </Array>
          </mxGeometry>
        </mxCell>
        <mxCell id="k8peXyb4xf0YadzC96Ip-3" value="contact page" style="ellipse;whiteSpace=wrap;html=1;aspect=fixed;" parent="1" vertex="1">
          <mxGeometry x="750" y="120" width="80" height="80" as="geometry" />
        </mxCell>
        <mxCell id="k8peXyb4xf0YadzC96Ip-52" style="edgeStyle=orthogonalEdgeStyle;rounded=0;orthogonalLoop=1;jettySize=auto;html=1;entryX=0.5;entryY=0;entryDx=0;entryDy=0;" parent="1" source="k8peXyb4xf0YadzC96Ip-4" target="k8peXyb4xf0YadzC96Ip-51" edge="1">
          <mxGeometry relative="1" as="geometry">
            <Array as="points">
              <mxPoint x="290" y="560" />
            </Array>
          </mxGeometry>
        </mxCell>
        <mxCell id="k8peXyb4xf0YadzC96Ip-53" style="edgeStyle=orthogonalEdgeStyle;rounded=0;orthogonalLoop=1;jettySize=auto;html=1;entryX=0.651;entryY=0.014;entryDx=0;entryDy=0;entryPerimeter=0;" parent="1" source="k8peXyb4xf0YadzC96Ip-4" target="k8peXyb4xf0YadzC96Ip-50" edge="1">
          <mxGeometry relative="1" as="geometry">
            <Array as="points">
              <mxPoint x="290" y="561" />
            </Array>
          </mxGeometry>
        </mxCell>
        <mxCell id="k8peXyb4xf0YadzC96Ip-55" style="edgeStyle=orthogonalEdgeStyle;rounded=0;orthogonalLoop=1;jettySize=auto;html=1;entryX=0.5;entryY=0;entryDx=0;entryDy=0;" parent="1" source="k8peXyb4xf0YadzC96Ip-4" target="k8peXyb4xf0YadzC96Ip-54" edge="1">
          <mxGeometry relative="1" as="geometry">
            <Array as="points">
              <mxPoint x="290" y="560" />
              <mxPoint x="60" y="560" />
            </Array>
          </mxGeometry>
        </mxCell>
        <mxCell id="k8peXyb4xf0YadzC96Ip-57" style="edgeStyle=orthogonalEdgeStyle;rounded=0;orthogonalLoop=1;jettySize=auto;html=1;entryX=0.5;entryY=0;entryDx=0;entryDy=0;" parent="1" source="k8peXyb4xf0YadzC96Ip-4" target="k8peXyb4xf0YadzC96Ip-56" edge="1">
          <mxGeometry relative="1" as="geometry">
            <Array as="points">
              <mxPoint x="290" y="560" />
              <mxPoint x="200" y="560" />
            </Array>
          </mxGeometry>
        </mxCell>
        <mxCell id="k8peXyb4xf0YadzC96Ip-59" style="edgeStyle=orthogonalEdgeStyle;rounded=0;orthogonalLoop=1;jettySize=auto;html=1;entryX=0.61;entryY=-0.06;entryDx=0;entryDy=0;entryPerimeter=0;" parent="1" source="k8peXyb4xf0YadzC96Ip-4" target="k8peXyb4xf0YadzC96Ip-58" edge="1">
          <mxGeometry relative="1" as="geometry">
            <Array as="points">
              <mxPoint x="290" y="560" />
              <mxPoint x="354" y="560" />
            </Array>
          </mxGeometry>
        </mxCell>
        <mxCell id="k8peXyb4xf0YadzC96Ip-61" style="edgeStyle=orthogonalEdgeStyle;rounded=0;orthogonalLoop=1;jettySize=auto;html=1;entryX=0.5;entryY=0;entryDx=0;entryDy=0;" parent="1" source="k8peXyb4xf0YadzC96Ip-4" target="k8peXyb4xf0YadzC96Ip-60" edge="1">
          <mxGeometry relative="1" as="geometry">
            <Array as="points">
              <mxPoint x="290" y="560" />
              <mxPoint x="500" y="560" />
            </Array>
          </mxGeometry>
        </mxCell>
        <mxCell id="k8peXyb4xf0YadzC96Ip-63" style="edgeStyle=orthogonalEdgeStyle;rounded=0;orthogonalLoop=1;jettySize=auto;html=1;entryX=0.5;entryY=0;entryDx=0;entryDy=0;" parent="1" source="k8peXyb4xf0YadzC96Ip-4" target="k8peXyb4xf0YadzC96Ip-62" edge="1">
          <mxGeometry relative="1" as="geometry">
            <Array as="points">
              <mxPoint x="290" y="560" />
              <mxPoint x="650" y="560" />
            </Array>
          </mxGeometry>
        </mxCell>
        <mxCell id="k8peXyb4xf0YadzC96Ip-4" value="home page" style="ellipse;whiteSpace=wrap;html=1;aspect=fixed;" parent="1" vertex="1">
          <mxGeometry x="250" y="460" width="80" height="80" as="geometry" />
        </mxCell>
        <mxCell id="k8peXyb4xf0YadzC96Ip-30" style="edgeStyle=orthogonalEdgeStyle;rounded=0;orthogonalLoop=1;jettySize=auto;html=1;entryX=0.413;entryY=-0.037;entryDx=0;entryDy=0;entryPerimeter=0;" parent="1" source="k8peXyb4xf0YadzC96Ip-5" target="k8peXyb4xf0YadzC96Ip-28" edge="1">
          <mxGeometry relative="1" as="geometry" />
        </mxCell>
        <mxCell id="k8peXyb4xf0YadzC96Ip-31" style="edgeStyle=orthogonalEdgeStyle;rounded=0;orthogonalLoop=1;jettySize=auto;html=1;entryX=0.5;entryY=0;entryDx=0;entryDy=0;" parent="1" source="k8peXyb4xf0YadzC96Ip-5" target="k8peXyb4xf0YadzC96Ip-29" edge="1">
          <mxGeometry relative="1" as="geometry" />
        </mxCell>
        <mxCell id="k8peXyb4xf0YadzC96Ip-33" style="edgeStyle=orthogonalEdgeStyle;rounded=0;orthogonalLoop=1;jettySize=auto;html=1;entryX=0.5;entryY=0;entryDx=0;entryDy=0;" parent="1" source="k8peXyb4xf0YadzC96Ip-5" target="k8peXyb4xf0YadzC96Ip-32" edge="1">
          <mxGeometry relative="1" as="geometry" />
        </mxCell>
        <mxCell id="k8peXyb4xf0YadzC96Ip-5" value="question page" style="ellipse;whiteSpace=wrap;html=1;aspect=fixed;" parent="1" vertex="1">
          <mxGeometry x="480" y="150" width="80" height="80" as="geometry" />
        </mxCell>
        <mxCell id="k8peXyb4xf0YadzC96Ip-16" value="nab bar" style="ellipse;whiteSpace=wrap;html=1;aspect=fixed;strokeColor=#99FF99;fillColor=#FFFF99;" parent="1" vertex="1">
          <mxGeometry x="-140" y="240" width="80" height="80" as="geometry" />
        </mxCell>
        <mxCell id="k8peXyb4xf0YadzC96Ip-17" value="about component" style="ellipse;whiteSpace=wrap;html=1;aspect=fixed;" parent="1" vertex="1">
          <mxGeometry y="240" width="80" height="80" as="geometry" />
        </mxCell>
        <mxCell id="k8peXyb4xf0YadzC96Ip-18" value="footer" style="ellipse;whiteSpace=wrap;html=1;aspect=fixed;fillColor=#FF66FF;" parent="1" vertex="1">
          <mxGeometry x="130" y="240" width="80" height="80" as="geometry" />
        </mxCell>
        <mxCell id="k8peXyb4xf0YadzC96Ip-22" value="nab bar" style="ellipse;whiteSpace=wrap;html=1;aspect=fixed;fillColor=#FFFF99;" parent="1" vertex="1">
          <mxGeometry x="680" y="240" width="80" height="80" as="geometry" />
        </mxCell>
        <mxCell id="k8peXyb4xf0YadzC96Ip-23" value="contact componet" style="ellipse;whiteSpace=wrap;html=1;aspect=fixed;" parent="1" vertex="1">
          <mxGeometry x="820" y="240" width="80" height="80" as="geometry" />
        </mxCell>
        <mxCell id="k8peXyb4xf0YadzC96Ip-24" value="footer" style="ellipse;whiteSpace=wrap;html=1;aspect=fixed;fillColor=#FF66FF;" parent="1" vertex="1">
          <mxGeometry x="960" y="240" width="80" height="80" as="geometry" />
        </mxCell>
        <mxCell id="k8peXyb4xf0YadzC96Ip-28" value="nab bar" style="ellipse;whiteSpace=wrap;html=1;aspect=fixed;fillColor=#FFFF99;" parent="1" vertex="1">
          <mxGeometry x="370" y="240" width="80" height="80" as="geometry" />
        </mxCell>
        <mxCell id="k8peXyb4xf0YadzC96Ip-29" value="footer" style="ellipse;whiteSpace=wrap;html=1;aspect=fixed;fillColor=#FF66FF;" parent="1" vertex="1">
          <mxGeometry x="580" y="240" width="80" height="80" as="geometry" />
        </mxCell>
        <mxCell id="nylarFtcNKe-b3C_SZ7v-7" style="edgeStyle=orthogonalEdgeStyle;rounded=0;orthogonalLoop=1;jettySize=auto;html=1;entryX=0.775;entryY=0.963;entryDx=0;entryDy=0;entryPerimeter=0;" edge="1" parent="1" source="k8peXyb4xf0YadzC96Ip-32" target="nylarFtcNKe-b3C_SZ7v-5">
          <mxGeometry relative="1" as="geometry">
            <mxPoint x="560" as="targetPoint" />
            <Array as="points">
              <mxPoint x="520" y="360" />
              <mxPoint x="1310" y="360" />
              <mxPoint x="1310" y="-60" />
              <mxPoint x="542" y="-60" />
            </Array>
          </mxGeometry>
        </mxCell>
        <mxCell id="k8peXyb4xf0YadzC96Ip-32" value="question filed component" style="ellipse;whiteSpace=wrap;html=1;aspect=fixed;" parent="1" vertex="1">
          <mxGeometry x="480" y="260" width="80" height="80" as="geometry" />
        </mxCell>
        <mxCell id="k8peXyb4xf0YadzC96Ip-39" style="edgeStyle=orthogonalEdgeStyle;rounded=0;orthogonalLoop=1;jettySize=auto;html=1;entryX=0.313;entryY=-0.012;entryDx=0;entryDy=0;entryPerimeter=0;" parent="1" source="k8peXyb4xf0YadzC96Ip-34" target="k8peXyb4xf0YadzC96Ip-35" edge="1">
          <mxGeometry relative="1" as="geometry">
            <Array as="points">
              <mxPoint x="-450" y="140" />
              <mxPoint x="-575" y="140" />
            </Array>
          </mxGeometry>
        </mxCell>
        <mxCell id="k8peXyb4xf0YadzC96Ip-40" style="edgeStyle=orthogonalEdgeStyle;rounded=0;orthogonalLoop=1;jettySize=auto;html=1;entryX=0.5;entryY=0;entryDx=0;entryDy=0;" parent="1" source="k8peXyb4xf0YadzC96Ip-34" target="k8peXyb4xf0YadzC96Ip-36" edge="1">
          <mxGeometry relative="1" as="geometry">
            <Array as="points">
              <mxPoint x="-450" y="140" />
              <mxPoint x="-360" y="140" />
            </Array>
          </mxGeometry>
        </mxCell>
        <mxCell id="k8peXyb4xf0YadzC96Ip-41" style="edgeStyle=orthogonalEdgeStyle;rounded=0;orthogonalLoop=1;jettySize=auto;html=1;entryX=0.65;entryY=0.025;entryDx=0;entryDy=0;entryPerimeter=0;" parent="1" source="k8peXyb4xf0YadzC96Ip-34" target="k8peXyb4xf0YadzC96Ip-38" edge="1">
          <mxGeometry relative="1" as="geometry">
            <Array as="points">
              <mxPoint x="-450" y="141" />
              <mxPoint x="-448" y="141" />
            </Array>
          </mxGeometry>
        </mxCell>
        <mxCell id="k8peXyb4xf0YadzC96Ip-48" style="edgeStyle=orthogonalEdgeStyle;rounded=0;orthogonalLoop=1;jettySize=auto;html=1;" parent="1" source="k8peXyb4xf0YadzC96Ip-34" edge="1">
          <mxGeometry relative="1" as="geometry">
            <mxPoint x="-710" y="150" as="targetPoint" />
            <Array as="points">
              <mxPoint x="-450" y="140" />
              <mxPoint x="-709" y="140" />
              <mxPoint x="-709" y="150" />
            </Array>
          </mxGeometry>
        </mxCell>
        <mxCell id="k8peXyb4xf0YadzC96Ip-34" value="admin" style="ellipse;whiteSpace=wrap;html=1;aspect=fixed;" parent="1" vertex="1">
          <mxGeometry x="-480" y="40" width="80" height="80" as="geometry" />
        </mxCell>
        <mxCell id="k8peXyb4xf0YadzC96Ip-35" value="registration page" style="ellipse;whiteSpace=wrap;html=1;aspect=fixed;" parent="1" vertex="1">
          <mxGeometry x="-600" y="180" width="80" height="80" as="geometry" />
        </mxCell>
        <mxCell id="k8peXyb4xf0YadzC96Ip-36" value="login page" style="ellipse;whiteSpace=wrap;html=1;aspect=fixed;" parent="1" vertex="1">
          <mxGeometry x="-400" y="160" width="80" height="80" as="geometry" />
        </mxCell>
        <mxCell id="k8peXyb4xf0YadzC96Ip-38" value="create question page" style="ellipse;whiteSpace=wrap;html=1;aspect=fixed;" parent="1" vertex="1">
          <mxGeometry x="-500" y="160" width="80" height="80" as="geometry" />
        </mxCell>
        <mxCell id="k8peXyb4xf0YadzC96Ip-47" value="nab bar component" style="ellipse;whiteSpace=wrap;html=1;aspect=fixed;" parent="1" vertex="1">
          <mxGeometry x="-750" y="160" width="80" height="80" as="geometry" />
        </mxCell>
        <mxCell id="k8peXyb4xf0YadzC96Ip-50" value="footer" style="ellipse;whiteSpace=wrap;html=1;aspect=fixed;fillColor=#FF66FF;" parent="1" vertex="1">
          <mxGeometry x="730" y="600" width="80" height="80" as="geometry" />
        </mxCell>
        <mxCell id="k8peXyb4xf0YadzC96Ip-51" value="nab bar" style="ellipse;whiteSpace=wrap;html=1;aspect=fixed;fillColor=#FFFF99;" parent="1" vertex="1">
          <mxGeometry x="-90" y="600" width="80" height="80" as="geometry" />
        </mxCell>
        <mxCell id="k8peXyb4xf0YadzC96Ip-54" value="hero banner" style="ellipse;whiteSpace=wrap;html=1;aspect=fixed;" parent="1" vertex="1">
          <mxGeometry x="20" y="600" width="80" height="80" as="geometry" />
        </mxCell>
        <mxCell id="k8peXyb4xf0YadzC96Ip-66" style="edgeStyle=orthogonalEdgeStyle;rounded=0;orthogonalLoop=1;jettySize=auto;html=1;" parent="1" source="k8peXyb4xf0YadzC96Ip-56" target="k8peXyb4xf0YadzC96Ip-64" edge="1">
          <mxGeometry relative="1" as="geometry" />
        </mxCell>
        <mxCell id="k8peXyb4xf0YadzC96Ip-56" value="feature section" style="ellipse;whiteSpace=wrap;html=1;aspect=fixed;" parent="1" vertex="1">
          <mxGeometry x="160" y="600" width="80" height="80" as="geometry" />
        </mxCell>
        <mxCell id="k8peXyb4xf0YadzC96Ip-69" value="" style="edgeStyle=orthogonalEdgeStyle;rounded=0;orthogonalLoop=1;jettySize=auto;html=1;" parent="1" source="k8peXyb4xf0YadzC96Ip-58" target="k8peXyb4xf0YadzC96Ip-68" edge="1">
          <mxGeometry relative="1" as="geometry" />
        </mxCell>
        <mxCell id="k8peXyb4xf0YadzC96Ip-58" value="why us section" style="ellipse;whiteSpace=wrap;html=1;aspect=fixed;" parent="1" vertex="1">
          <mxGeometry x="305" y="600" width="80" height="80" as="geometry" />
        </mxCell>
        <mxCell id="k8peXyb4xf0YadzC96Ip-71" value="" style="edgeStyle=orthogonalEdgeStyle;rounded=0;orthogonalLoop=1;jettySize=auto;html=1;" parent="1" source="k8peXyb4xf0YadzC96Ip-60" target="k8peXyb4xf0YadzC96Ip-70" edge="1">
          <mxGeometry relative="1" as="geometry" />
        </mxCell>
        <mxCell id="k8peXyb4xf0YadzC96Ip-60" value="institue saying" style="ellipse;whiteSpace=wrap;html=1;aspect=fixed;" parent="1" vertex="1">
          <mxGeometry x="460" y="600" width="80" height="80" as="geometry" />
        </mxCell>
        <mxCell id="k8peXyb4xf0YadzC96Ip-62" value="contact section" style="ellipse;whiteSpace=wrap;html=1;aspect=fixed;" parent="1" vertex="1">
          <mxGeometry x="610" y="600" width="80" height="80" as="geometry" />
        </mxCell>
        <mxCell id="k8peXyb4xf0YadzC96Ip-64" value="future component" style="ellipse;whiteSpace=wrap;html=1;aspect=fixed;" parent="1" vertex="1">
          <mxGeometry x="160" y="720" width="80" height="80" as="geometry" />
        </mxCell>
        <mxCell id="k8peXyb4xf0YadzC96Ip-68" value="why us component" style="ellipse;whiteSpace=wrap;html=1;" parent="1" vertex="1">
          <mxGeometry x="305" y="720" width="80" height="80" as="geometry" />
        </mxCell>
        <mxCell id="k8peXyb4xf0YadzC96Ip-70" value="&lt;div&gt;institute component&lt;/div&gt;&lt;div&gt;&lt;br&gt;&lt;/div&gt;" style="ellipse;whiteSpace=wrap;html=1;" parent="1" vertex="1">
          <mxGeometry x="460" y="720" width="80" height="80" as="geometry" />
        </mxCell>
        <mxCell id="nylarFtcNKe-b3C_SZ7v-6" style="edgeStyle=orthogonalEdgeStyle;rounded=0;orthogonalLoop=1;jettySize=auto;html=1;entryX=1.038;entryY=0.588;entryDx=0;entryDy=0;entryPerimeter=0;" edge="1" parent="1" target="nylarFtcNKe-b3C_SZ7v-5">
          <mxGeometry relative="1" as="geometry">
            <mxPoint x="1243" y="160" as="sourcePoint" />
            <mxPoint x="623" y="-50" as="targetPoint" />
            <Array as="points">
              <mxPoint x="1263" y="160" />
              <mxPoint x="1263" y="-30" />
              <mxPoint x="620" y="-30" />
              <mxPoint x="620" y="-20" />
              <mxPoint x="623" y="-20" />
              <mxPoint x="623" y="-43" />
            </Array>
          </mxGeometry>
        </mxCell>
        <mxCell id="nylarFtcNKe-b3C_SZ7v-3" value="login page" style="ellipse;whiteSpace=wrap;html=1;aspect=fixed;" vertex="1" parent="1">
          <mxGeometry x="1120" y="120" width="80" height="80" as="geometry" />
        </mxCell>
        <mxCell id="nylarFtcNKe-b3C_SZ7v-5" value="user data" style="ellipse;whiteSpace=wrap;html=1;aspect=fixed;" vertex="1" parent="1">
          <mxGeometry x="480" y="-90" width="80" height="80" as="geometry" />
        </mxCell>
        <mxCell id="nylarFtcNKe-b3C_SZ7v-9" style="edgeStyle=orthogonalEdgeStyle;rounded=0;orthogonalLoop=1;jettySize=auto;html=1;exitX=0.5;exitY=1;exitDx=0;exitDy=0;" edge="1" parent="1" source="nylarFtcNKe-b3C_SZ7v-5" target="nylarFtcNKe-b3C_SZ7v-5">
          <mxGeometry relative="1" as="geometry" />
        </mxCell>
      </root>
    </mxGraphModel>
  </diagram>
</mxfile>
